ffmpeg version 4.2.7-0ubuntu0.1 Copyright (c) 2000-2022 the FFmpeg developers
  built with gcc 9 (Ubuntu 9.4.0-1ubuntu1~20.04.1)
  configuration: --prefix=/usr --extra-version=0ubuntu0.1 --toolchain=hardened --libdir=/usr/lib/x86_64-linux-gnu --incdir=/usr/include/x86_64-linux-gnu --arch=amd64 --enable-gpl --disable-stripping --enable-avresample --disable-filter=resample --enable-avisynth --enable-gnutls --enable-ladspa --enable-libaom --enable-libass --enable-libbluray --enable-libbs2b --enable-libcaca --enable-libcdio --enable-libcodec2 --enable-libflite --enable-libfontconfig --enable-libfreetype --enable-libfribidi --enable-libgme --enable-libgsm --enable-libjack --enable-libmp3lame --enable-libmysofa --enable-libopenjpeg --enable-libopenmpt --enable-libopus --enable-libpulse --enable-librsvg --enable-librubberband --enable-libshine --enable-libsnappy --enable-libsoxr --enable-libspeex --enable-libssh --enable-libtheora --enable-libtwolame --enable-libvidstab --enable-libvorbis --enable-libvpx --enable-libwavpack --enable-libwebp --enable-libx265 --enable-libxml2 --enable-libxvid --enable-libzmq --enable-libzvbi --enable-lv2 --enable-omx --enable-openal --enable-opencl --enable-opengl --enable-sdl2 --enable-libdc1394 --enable-libdrm --enable-libiec61883 --enable-nvenc --enable-chromaprint --enable-frei0r --enable-libx264 --enable-shared
  libavutil      56. 31.100 / 56. 31.100
  libavcodec     58. 54.100 / 58. 54.100
  libavformat    58. 29.100 / 58. 29.100
  libavdevice    58.  8.100 / 58.  8.100
  libavfilter     7. 57.100 /  7. 57.100
  libavresample   4.  0.  0 /  4.  0.  0
  libswscale      5.  5.100 /  5.  5.100
  libswresample   3.  5.100 /  3.  5.100
  libpostproc    55.  5.100 / 55.  5.100
Routing option strict to both codec and muxer layer
[h264 @ 0x55a3303fa000] Reinit context to 480x864, pix_fmt: yuv420p
Input #0, mov,mp4,m4a,3gp,3g2,mj2, from '/var/www/html/project/media/video/original/VID-20230831-WA0002.mp4':
  Metadata:
    major_brand     : mp42
    minor_version   : 0
    compatible_brands: mp42isom
  Duration: 00:00:03.70, start: 0.000000, bitrate: 1921 kb/s
    Stream #0:0(und): Video: h264 (Baseline), 1 reference frame (avc1 / 0x31637661), yuv420p(tv, bt709/bt709/smpte170m, left), 480x864, 1660 kb/s, 29.74 fps, 30 tbr, 90k tbn, 180k tbc (default)
    Stream #0:1(und): Audio: aac (LC) (mp4a / 0x6134706D), 48000 Hz, stereo, fltp, 256 kb/s (default)
Input #1, png_pipe, from '/var/www/html/project/static/images/templates/logo_vertical.png':
  Duration: N/A, bitrate: N/A
    Stream #1:0: Video: png, 1 reference frame, rgba(pc), 1920x1080 [SAR 2835:2835 DAR 16:9], 25 tbr, 25 tbn, 25 tbc
[Parsed_scale_1 @ 0x55a3304615c0] w:1280 h:720 flags:'bilinear' interl:0
[Parsed_scale_4 @ 0x55a330427c00] w:-1 h:720 flags:'bilinear' interl:0
[Parsed_scale_6 @ 0x55a33056ff40] w:1280 h:720 flags:'bilinear' interl:0
Stream mapping:
  Stream #0:0 (h264) -> split (graph 0)
  Stream #1:0 (png) -> scale (graph 0)
  overlay (graph 0) -> Stream #0:0 (libx264)
  Stream #0:1 -> #0:1 (aac (native) -> aac (native))
Press [q] to stop, [?] for help
[h264 @ 0x55a330430580] Reinit context to 480x864, pix_fmt: yuv420p
[graph_1_in_0_1 @ 0x55a330959900] tb:1/48000 samplefmt:fltp samplerate:48000 chlayout:0x3
[Parsed_scale_1 @ 0x55a33095a900] w:1280 h:720 flags:'bilinear' interl:0
[Parsed_scale_4 @ 0x55a330b03140] w:-1 h:720 flags:'bilinear' interl:0
[Parsed_scale_6 @ 0x55a330b04a00] w:1280 h:720 flags:'bilinear' interl:0
[graph 0 input from stream 0:0 @ 0x55a330b01c40] w:480 h:864 pixfmt:yuv420p tb:1/90000 fr:30/1 sar:0/1 sws_param:flags=2
[graph 0 input from stream 1:0 @ 0x55a330b05100] w:1920 h:1080 pixfmt:rgba tb:1/25 fr:25/1 sar:2835/2835 sws_param:flags=2
[Parsed_scale_1 @ 0x55a33095a900] w:480 h:864 fmt:yuv420p sar:0/1 -> w:1280 h:720 fmt:yuv420p sar:0/1 flags:0x2
[Parsed_boxblur_2 @ 0x55a330b00b00] luma_radius:36 luma_power:1 chroma_radius:18 chroma_power:1 alpha_radius:36 alpha_power:1 w:1280 chroma_w:640 h:720 chroma_h:360
[Parsed_setsar_3 @ 0x55a330b02340] w:1280 h:720 sar:0/1 dar:16/9 -> sar:1/1 dar:16/9
[Parsed_scale_4 @ 0x55a330b03140] w:480 h:864 fmt:yuv420p sar:0/1 -> w:400 h:720 fmt:yuva420p sar:0/1 flags:0x2
[Parsed_setsar_5 @ 0x55a330b03c40] w:400 h:720 sar:0/1 dar:5/9 -> sar:1/1 dar:5/9
[Parsed_overlay_8 @ 0x55a330b059c0] main w:1280 h:720 fmt:yuv420p overlay w:400 h:720 fmt:yuva420p
[Parsed_overlay_8 @ 0x55a330b059c0] [framesync @ 0x55a330b04f28] Selected 1/90000 time base
[Parsed_overlay_8 @ 0x55a330b059c0] [framesync @ 0x55a330b04f28] Sync level 2
[Parsed_scale_6 @ 0x55a330b04a00] w:1920 h:1080 fmt:rgba sar:2835/2835 -> w:1280 h:720 fmt:yuva420p sar:1/1 flags:0x2
[Parsed_setsar_7 @ 0x55a330b054c0] w:1280 h:720 sar:1/1 dar:16/9 -> sar:1/1 dar:16/9
[Parsed_overlay_9 @ 0x55a330959a80] main w:1280 h:720 fmt:yuv420p overlay w:1280 h:720 fmt:yuva420p
[Parsed_overlay_9 @ 0x55a330959a80] [framesync @ 0x55a330b00f68] Selected 1/90000 time base
[Parsed_overlay_9 @ 0x55a330959a80] [framesync @ 0x55a330b00f68] Sync level 2
[libx264 @ 0x55a33056ff40] using SAR=1/1
[libx264 @ 0x55a33056ff40] using cpu capabilities: MMX2 SSE2Fast SSSE3 SSE4.2 AVX FMA3 BMI2 AVX2
[libx264 @ 0x55a33056ff40] profile High, level 3.1
[libx264 @ 0x55a33056ff40] 264 - core 155 r2917 0a84d98 - H.264/MPEG-4 AVC codec - Copyleft 2003-2018 - http://www.videolan.org/x264.html - options: cabac=1 ref=1 deblock=1:0:0 analyse=0x3:0x113 me=hex subme=2 psy=1 psy_rd=1.00:0.00 mixed_ref=0 me_range=16 chroma_me=1 trellis=0 8x8dct=1 cqm=0 deadzone=21,11 fast_pskip=1 chroma_qp_offset=0 threads=22 lookahead_threads=5 sliced_threads=0 nr=0 decimate=1 interlaced=0 bluray_compat=0 constrained_intra=0 bframes=3 b_pyramid=2 b_adapt=1 b_bias=0 direct=1 weightb=1 open_gop=0 weightp=1 keyint=250 keyint_min=25 scenecut=40 intra_refresh=0 rc_lookahead=10 rc=crf mbtree=1 crf=18.0 qcomp=0.60 qpmin=0 qpmax=69 qpstep=4 ip_ratio=1.40 aq=1:1.00
Output #0, mp4, to '/var/www/html/project/media/video/watermarks/VID-20230831-WA0002.mp4':
  Metadata:
    major_brand     : mp42
    minor_version   : 0
    compatible_brands: mp42isom
    encoder         : Lavf58.29.100
    Stream #0:0: Video: h264 (libx264), 1 reference frame (avc1 / 0x31637661), yuv420p, 1280x720 [SAR 1:1 DAR 16:9], q=-1--1, 30 fps, 15360 tbn, 30 tbc (default)
    Metadata:
      encoder         : Lavc58.54.100 libx264
    Side data:
      cpb: bitrate max/min/avg: 0/0/0 buffer size: 0 vbv_delay: -1
    Stream #0:1(und): Audio: aac (LC) (mp4a / 0x6134706D), 48000 Hz, stereo, fltp, delay 1024, 128 kb/s (default)
    Metadata:
      encoder         : Lavc58.54.100 aac
[Parsed_overlay_8 @ 0x55a330b059c0] [framesync @ 0x55a330b04f28] Sync level 1
[Parsed_overlay_8 @ 0x55a330b059c0] [framesync @ 0x55a330b04f28] Sync level 0
[Parsed_overlay_9 @ 0x55a330959a80] [framesync @ 0x55a330b00f68] Sync level 0
No more output streams to write to, finishing.
frame=  110 fps= 32 q=-1.0 Lsize=    1789kB time=00:00:03.66 bitrate=3994.4kbits/s speed=1.07x    
[AVIOContext @ 0x55a3303f8280] Statistics: 0 seeks, 7 writeouts
video:1714kB audio:69kB subtitle:0kB other streams:0kB global headers:0kB muxing overhead: 0.297429%
Input file #0 (/var/www/html/project/media/video/original/VID-20230831-WA0002.mp4):
  Input stream #0:0 (video): 110 packets read (767640 bytes); 110 frames decoded; 
  Input stream #0:1 (audio): 172 packets read (117480 bytes); 172 frames decoded (176128 samples); 
  Total: 282 packets (885120 bytes) demuxed
Input file #1 (/var/www/html/project/static/images/templates/logo_vertical.png):
  Input stream #1:0 (video): 1 packets read (93903 bytes); 1 frames decoded; 
  Total: 1 packets (93903 bytes) demuxed
Output file #0 (/var/www/html/project/media/video/watermarks/VID-20230831-WA0002.mp4):
  Output stream #0:0 (video): 110 frames encoded; 110 packets muxed (1755617 bytes); 
  Output stream #0:1 (audio): 172 frames encoded (176128 samples); 173 packets muxed (71037 bytes); 
  Total: 283 packets (1826654 bytes) muxed
[AVIOContext @ 0x55a3304e4480] Statistics: 2 seeks, 10 writeouts
[libx264 @ 0x55a33056ff40] frame I:1     Avg QP:19.88  size: 37470
[libx264 @ 0x55a33056ff40] frame P:30    Avg QP:18.86  size: 27773
[libx264 @ 0x55a33056ff40] frame B:79    Avg QP:19.95  size: 11193
[libx264 @ 0x55a33056ff40] consecutive B-frames:  1.8%  1.8% 16.4% 80.0%
[libx264 @ 0x55a33056ff40] mb I  I16..4: 23.2% 52.5% 24.3%
[libx264 @ 0x55a33056ff40] mb P  I16..4: 24.3% 34.3%  5.6%  P16..4: 16.7% 11.1%  5.7%  0.0%  0.0%    skip: 2.3%
[libx264 @ 0x55a33056ff40] mb B  I16..4:  7.0%  6.0%  0.3%  B16..8: 27.9% 12.5%  1.6%  direct:14.7%  skip:29.9%  L0:42.6% L1:46.8% BI:10.6%
[libx264 @ 0x55a33056ff40] 8x8 transform intra:50.6% inter:22.1%
[libx264 @ 0x55a33056ff40] coded y,uvDC,uvAC intra: 33.0% 63.5% 16.9% inter: 11.1% 43.1% 2.7%
[libx264 @ 0x55a33056ff40] i16 v,h,dc,p: 27% 35%  9% 30%
[libx264 @ 0x55a33056ff40] i8 v,h,dc,ddl,ddr,vr,hd,vl,hu: 18% 42% 14%  5%  4%  4%  6%  4%  4%
[libx264 @ 0x55a33056ff40] i4 v,h,dc,ddl,ddr,vr,hd,vl,hu: 26% 24% 13%  6%  7%  7%  6%  6%  5%
[libx264 @ 0x55a33056ff40] i8c dc,h,v,p: 35% 33% 12% 20%
[libx264 @ 0x55a33056ff40] Weighted P-Frames: Y:23.3% UV:20.0%
[libx264 @ 0x55a33056ff40] kb/s:3794.44
[aac @ 0x55a3304248c0] Qavg: 2893.141
[AVIOContext @ 0x55a330401240] Statistics: 888139 bytes read, 0 seeks
[AVIOContext @ 0x55a3303ff340] Statistics: 93903 bytes read, 0 seeks
